<svg viewBox="0 0 24 24" xmlns="http://www.w3.org/2000/svg" xmlns:xlink="http://www.w3.org/1999/xlink" width="24.000000" height="24.000000" fill="none">
	<rect id="窗口_自动折叠窗口" width="24.000000" height="24.000000" x="0.000000" y="0.000000" transform="matrix(1,0,0,-1,0,24)" />
	<path id="矢量 355" d="M8 3.25L3 3.25C2.7583 3.25 2.53442 3.29272 2.32812 3.37817C2.12183 3.46356 1.93335 3.59174 1.76245 3.76257C1.5918 3.93341 1.46362 4.12195 1.37817 4.32819C1.29272 4.53442 1.25 4.75836 1.25 5L1.25 19C1.25 19.2416 1.29272 19.4656 1.37817 19.6718C1.46362 19.8781 1.5918 20.0666 1.76245 20.2374C1.93335 20.4083 2.12207 20.5364 2.32812 20.6219L2.32812 20.6219C2.53442 20.7073 2.7583 20.75 3 20.75L21 20.75C21.2417 20.75 21.4656 20.7073 21.6719 20.6218C21.8782 20.5364 22.0667 20.4083 22.2375 20.2374C22.4082 20.0666 22.5364 19.8781 22.6218 19.6718C22.7073 19.4656 22.75 19.2416 22.75 19L22.75 16C22.75 15.58 22.4199 15.25 22 15.25C21.5801 15.25 21.25 15.58 21.25 16L21.25 19C21.25 19.0833 21.2292 19.1458 21.1875 19.1875C21.1458 19.2292 21.0833 19.25 21 19.25L3 19.25C2.96558 19.25 2.93359 19.2439 2.90405 19.2317C2.87451 19.2195 2.84766 19.2012 2.82324 19.1768C2.79883 19.1523 2.78052 19.1254 2.76831 19.0959C2.7561 19.0665 2.75 19.0345 2.75 19L2.75 5C2.75 4.96545 2.7561 4.93347 2.76831 4.90399C2.78052 4.87457 2.79883 4.8476 2.82324 4.82324C2.84766 4.79883 2.87451 4.78052 2.90405 4.76831C2.93335 4.7561 2.96558 4.75 3 4.75L8 4.75C8.41992 4.75 8.75 4.41998 8.75 4C8.75 3.58002 8.41992 3.25 8 3.25ZM13 12.75L21 12.75C21.2417 12.75 21.4656 12.7073 21.6719 12.6218C21.8782 12.5364 22.0667 12.4083 22.2375 12.2374C22.4082 12.0666 22.5364 11.8781 22.6218 11.6719C22.7073 11.4656 22.75 11.2416 22.75 11L22.75 5C22.75 4.75836 22.7073 4.53442 22.6218 4.32812C22.5364 4.12195 22.4082 3.93341 22.2375 3.76257C22.0667 3.59174 21.8782 3.46356 21.6719 3.37817C21.4656 3.29272 21.2417 3.25 21 3.25L13 3.25C12.7583 3.25 12.5344 3.29272 12.3281 3.37817C12.1218 3.46356 11.9333 3.59174 11.7625 3.76257C11.5918 3.93341 11.4636 4.12195 11.3782 4.32812C11.2927 4.53442 11.25 4.75836 11.25 5L11.25 11C11.25 11.2416 11.2927 11.4656 11.3782 11.6719C11.4636 11.8781 11.5918 12.0666 11.7625 12.2374C11.9333 12.4083 12.1218 12.5364 12.3281 12.6218C12.5344 12.7073 12.7583 12.75 13 12.75ZM13 11.25C12.9656 11.25 12.9333 11.2439 12.9041 11.2317C12.8745 11.2195 12.8477 11.2012 12.8232 11.1768C12.7988 11.1524 12.7805 11.1255 12.7683 11.096C12.7561 11.0665 12.75 11.0345 12.75 11L12.75 5C12.75 4.91669 12.7708 4.85419 12.8125 4.8125C12.8542 4.77081 12.9167 4.75 13 4.75L21 4.75C21.1667 4.75 21.25 4.83331 21.25 5L21.25 11C21.25 11.0345 21.2439 11.0665 21.2317 11.096C21.2195 11.1255 21.2012 11.1524 21.1768 11.1768C21.1523 11.2012 21.1255 11.2195 21.0959 11.2317C21.0667 11.2439 21.0347 11.25 21 11.25L13 11.25Z" fill="rgb(255,255,255)" fill-rule="evenodd" />
</svg>
